<svg id="Layer_1" data-name="Layer 1" xmlns="http://www.w3.org/2000/svg" viewBox="0 0 342.13 347.43"><defs><style>.cls-1{fill:#fff;}.cls-2{fill:none;}.cls-3{fill:#df5851;}.cls-4{fill:#eacd1f;}.cls-5{fill:#69c3e2;}</style></defs><title>gaslight-logo--primary-white</title><path class="cls-1" d="M90.18,366.48a14.34,14.34,0,0,1-10.79,4.35,14,14,0,0,1-10.31-4.19A11,11,0,0,1,66,360.89a70.36,70.36,0,0,1,0-19,10.84,10.84,0,0,1,3.11-5.75,14,14,0,0,1,10.31-4.19c8.7,0,13.37,5.59,14.39,12.24H86.26c-0.91-3.71-3.17-5.59-6.87-5.59a6.08,6.08,0,0,0-4.78,2c-1.4,1.77-1.83,3.17-1.83,10.74s0.32,9,1.83,10.79a5.9,5.9,0,0,0,4.78,2A6.88,6.88,0,0,0,84.7,362a7.5,7.5,0,0,0,1.72-5.1v-1.45h-7v-6.23H93.83v5.58C93.83,360.41,92.81,363.68,90.18,366.48Z" transform="translate(-28.63 -23.4)"/><path class="cls-1" d="M126,370.5l-2.26-6.77H110.12l-2.31,6.77H100l13.91-38.24h5.85l14,38.24H126Zm-8.92-27-4.83,13.91h9.5Z" transform="translate(-28.63 -23.4)"/><path class="cls-1" d="M152.94,370.83c-5.8,0-10.2-1.23-14-5l4.83-4.83c2.42,2.42,5.69,3.22,9.24,3.22,4.4,0,6.77-1.67,6.77-4.72a4.25,4.25,0,0,0-1.18-3.22,5.7,5.7,0,0,0-3.38-1.34l-4.62-.64c-3.28-.48-5.69-1.5-7.41-3.17a10.1,10.1,0,0,1-2.74-7.52c0-6.82,5-11.6,13.32-11.6,5.26,0,9.08,1.29,12.35,4.46l-4.73,4.67c-2.42-2.31-5.32-2.63-7.84-2.63-4,0-5.91,2.2-5.91,4.83A3.69,3.69,0,0,0,148.8,346a6.57,6.57,0,0,0,3.54,1.51l4.51,0.64c3.49,0.48,5.69,1.45,7.31,3,2,1.93,3,4.73,3,8.11C167.12,366.64,160.94,370.83,152.94,370.83Z" transform="translate(-28.63 -23.4)"/><path class="cls-1" d="M177.37,370.5V332.27h7.47v31.58h17.35v6.66H177.37Z" transform="translate(-28.63 -23.4)"/><path class="cls-1" d="M211.47,370.5V332.27h7.47V370.5h-7.47Z" transform="translate(-28.63 -23.4)"/><path class="cls-1" d="M254.65,366.48a14.35,14.35,0,0,1-10.79,4.35,14,14,0,0,1-10.31-4.19,11.07,11.07,0,0,1-3.12-5.75,70.5,70.5,0,0,1,0-19,10.88,10.88,0,0,1,3.12-5.75,14,14,0,0,1,10.31-4.19c8.7,0,13.37,5.59,14.39,12.24h-7.52c-0.92-3.71-3.17-5.59-6.88-5.59a6.09,6.09,0,0,0-4.78,2c-1.4,1.77-1.83,3.17-1.83,10.74s0.32,9,1.83,10.79a5.9,5.9,0,0,0,4.78,2,6.88,6.88,0,0,0,5.32-2.15,7.49,7.49,0,0,0,1.72-5.1v-1.45h-7v-6.23H258.3v5.58C258.3,360.41,257.28,363.68,254.65,366.48Z" transform="translate(-28.63 -23.4)"/><path class="cls-1" d="M288.9,370.5v-16H276v16H268.5V332.27H276V347.9H288.9V332.27h7.47V370.5H288.9Z" transform="translate(-28.63 -23.4)"/><path class="cls-1" d="M323.11,338.93V370.5h-7.47V338.93h-10v-6.66H333.1v6.66h-10Z" transform="translate(-28.63 -23.4)"/><path class="cls-1" d="M199.7,23.4L28.63,194.47l66.11,0,105,105,105-105,66,0Zm0,235.84-41.93-41.92,42-42,41.93,41.92Zm55-55L199.81,149.3l-0.54.53-54.48,54.5-32-32,87-87,87,87Z" transform="translate(-28.63 -23.4)"/><polygon class="cls-2" points="150.11 172.96 171.07 193.9 150.1 214.88 171.07 235.84 213.1 193.81 171.17 151.9 150.11 172.96"/><polygon class="cls-2" points="84.11 148.88 116.16 180.93 170.64 126.43 171.17 125.9 226.08 180.81 258.02 148.88 171.07 61.92 84.11 148.88"/><rect class="cls-3" x="163.91" y="202.5" width="29.66" height="29.63" transform="translate(-129.94 166.61) rotate(-44.99)"/><polygon class="cls-2" points="171.17 151.9 150.11 172.96 129.14 193.93 150.03 214.81 171.01 193.84 192.04 214.87 213.1 193.81 171.17 151.9"/><polygon class="cls-2" points="84.11 148.88 116.16 180.93 170.64 126.43 171.17 125.9 226.08 180.81 258.02 148.88 171.07 61.92 84.11 148.88"/><polygon class="cls-4" points="150.03 214.81 150.1 214.88 171.07 235.84 192.04 214.87 171.01 193.84 150.03 214.81"/><polygon class="cls-2" points="84.11 148.88 116.16 180.93 170.64 126.43 171.17 125.9 226.08 180.81 258.02 148.88 171.07 61.92 84.11 148.88"/><polygon class="cls-2" points="192.07 172.79 171.17 151.9 150.11 172.96 129.14 193.93 150.03 214.81 150.1 214.88 171.07 235.84 192.04 214.87 171.01 193.84 192.07 172.79"/><polygon class="cls-5" points="213.1 193.81 192.07 172.79 171.01 193.84 192.04 214.87 192.04 214.87 213.1 193.81"/></svg>